:SAMPLES-PER-SECOND 30
:FULLY-SPECIFIED
:DEGREES
299
root  46.0518 30.1558 -42.7273 -166.133 7.04268 171.631
RightUpLeg  -62.1802 8.46001 -5.9868
RightLeg  37.744 -4.0603 -2.75845
RightFoot  -2.58288 -0.019178 -0.473268
RightToes  -37.005 -0.195011 -0.297586
Spine  15.5625 -0.0937536 7.10226
Spine1  28.1918 0.427131 6.22133
HEad  18.0251 1.83499 -8.85321
LeftShoulder1  0 -2.42657e-020 -4.95415e-022
LeftArm  -12.3568 -14.1366 -90.1084
LeftForeArm  35.1164 -38.6102 -8.09003
LeftHand  -0.207064 -9.20663 2.20298
RightShoulder  0 2.42657e-020 1.07489e-018
RightArm  -61.1115 37.6858 27.6899
RightForeArm  61.5528 45.1376 10.1656
RightHand  -5.94416 24.9481 -26.0522
LeftUpLeg  -30.5148 -0.891135 -15.85
LeftLeg  48.9838 -7.66086 -7.67987
LeftFoot  -20.5623 0.695637 3.83362
LeftToes  -11.5714 2.37847e-007 4.89147e-008
300
root  45.5083 29.3898 -43.8839 -166.283 6.59096 171.895
RightUpLeg  -64.9327 7.20245 -3.89563
RightLeg  38.8695 -2.26677 -1.61768
RightFoot  -3.25111 -0.0321049 -0.75387
RightToes  -38.7878 -0.208873 -0.308173
Spine  16.5455 0.939087 7.87218
Spine1  29.8039 2.47705 6.76912
HEad  17.2559 -2.52159 -7.05161
LeftShoulder1  0 -2.42657e-020 -4.95415e-022
LeftArm  -10.3736 -17.0172 -92.2928
LeftForeArm  35.0008 -39.3252 -8.30179
LeftHand  -0.238329 -9.14845 2.61026
RightShoulder  0 2.42657e-020 1.07489e-018
RightArm  -64.4986 39.5043 23.0145
RightForeArm  64.37 39.365 8.26081
RightHand  -6.56058 25.3686 -28.21
LeftUpLeg  -29.6448 -1.06224 -16.9842
LeftLeg  52.2481 -7.14262 -8.02631
LeftFoot  -25.0877 1.01854 4.57545
LeftToes  -8.54929 2.37847e-007 4.89147e-008
301
root  45.0866 28.6178 -45.1241 -166.68 6.4023 172.271
RightUpLeg  -66.9143 5.69035 -0.880673
RightLeg  41.6092 -1.67865 -1.33298
RightFoot  -5.08999 -0.0594911 -0.96097
RightToes  -38.3634 -0.205543 -0.305692
Spine  17.73 1.98385 8.47636
Spine1  31.6735 4.54786 7.15998
HEad  16.7555 -6.61575 -4.38285
LeftShoulder1  0 -2.42657e-020 -4.95415e-022
LeftArm  -7.88758 -19.951 -94.1898
LeftForeArm  34.7023 -39.8215 -8.45163
LeftHand  -0.28877 -9.33623 3.16775
RightShoulder  0 2.42657e-020 1.07489e-018
RightArm  -69.9106 41.9174 19.8558
RightForeArm  66.9148 31.6557 6.17246
RightHand  -6.59659 25.8995 -27.7761
LeftUpLeg  -28.6903 -0.405763 -17.8504
LeftLeg  56.1025 -6.82169 -8.7836
LeftFoot  -28.8816 1.39295 5.40543
LeftToes  -4.6355 2.37847e-007 4.89147e-008
302
root  44.6834 27.9338 -46.4527 -166.814 5.73618 172.448
RightUpLeg  -68.1462 3.67449 1.91168
RightLeg  44.9248 -2.80699 -2.49046
RightFoot  -5.68432 -0.0690541 -1.01344
RightToes  -36.8859 -0.194096 -0.296863
Spine  18.4024 2.72662 8.97055
Spine1  32.6745 6.05729 7.41393
HEad  16.683 -10.4155 -1.1652
LeftShoulder1  0 -2.42657e-020 -4.95415e-022
LeftArm  -5.47086 -21.7855 -95.7599
LeftForeArm  35.2061 -39.8581 -8.46232
LeftHand  -0.33671 -9.47772 3.69279
RightShoulder  0 2.42657e-020 1.07489e-018
RightArm  -74.8189 44.2342 17.2014
RightForeArm  66.119 21.9111 4.00101
RightHand  -4.99672 26.7848 -20.4038
LeftUpLeg  -27.2153 0.929565 -18.7208
LeftLeg  58.9905 -6.99152 -9.98322
LeftFoot  -31.6375 1.82333 6.42927
LeftToes  -0.940561 2.37847e-007 4.89147e-008
303
root  44.2983 27.4367 -47.8046 -166.427 4.66435 172.612
RightUpLeg  -68.6612 3.17415 2.41537
RightLeg  48.3256 -3.51179 -3.502
RightFoot  -6.24375 -0.0726758 -0.954997
RightToes  -28.1056 -0.131096 -0.238586
Spine  18.5903 3.31947 9.48827
Spine1  33.0129 7.18034 8.06512
HEad  15.9579 -14.2866 0.939048
LeftShoulder1  0 -2.42657e-020 -4.95415e-022
LeftArm  -3.12884 -22.7058 -97.2598
LeftForeArm  36.6769 -39.5833 -8.37772
LeftHand  -0.348729 -9.83846 3.68272
RightShoulder  0 2.42657e-020 1.07489e-018
RightArm  -79.1153 44.579 14.5525
RightForeArm  59.9497 14.68 2.59993
RightHand  0.147853 28.826 0.945509
LeftUpLeg  -25.2944 2.06901 -19.3002
LeftLeg  60.2661 -7.44291 -11.1184
LeftFoot  -33.4163 2.21971 7.38552
LeftToes  2.36639 2.37847e-007 4.89147e-008
304
root  43.9524 27.1606 -49.198 -165.817 3.79633 172.924
RightUpLeg  -69.8464 4.54469 0.867478
RightLeg  52.1102 -3.49959 -3.9884
RightFoot  -0.812778 -0.0135861 -1.53903
RightToes  -24.1866 -0.106006 -0.209602
Spine  18.5121 3.86585 9.96526
Spine1  33.0275 8.02839 8.99097
HEad  14.2894 -17.0418 1.74446
LeftShoulder1  0 -2.42657e-020 -4.95415e-022
LeftArm  -1.99029 -22.0237 -98.4552
LeftForeArm  37.8159 -39.975 -8.49529
LeftHand  -0.367341 -10.1812 3.75443
RightShoulder  0 2.42657e-020 1.07489e-018
RightArm  -80.0054 43.1017 14.3573
RightForeArm  59.6182 11.0244 1.92435
RightHand  2.59602 26.7646 11.2535
LeftUpLeg  -23.1368 2.4985 -19.3216
LeftLeg  60.6326 -8.17828 -12.3435
LeftFoot  -33.4692 2.47454 8.21717
LeftToes  2.90123 2.37847e-007 4.89147e-008
305
root  43.6393 27.2194 -50.6865 -165.651 2.53217 173.394
RightUpLeg  -70.0811 4.99881 -0.429937
RightLeg  56.9585 -4.92051 -6.62702
RightFoot  -0.616106 -0.0100264 -1.4888
RightToes  -23.2437 -0.100269 -0.202377
Spine  18.6737 3.8914 10.6067
Spine1  33.6778 8.11465 9.56509
HEad  12.0566 -17.693 1.38829
LeftShoulder1  0 -2.42657e-020 -4.95415e-022
LeftArm  -2.58402 -20.5557 -98.9166
LeftForeArm  38.1988 -40.5938 -8.68542
LeftHand  -0.408534 -10.3392 4.14608
RightShoulder  0 2.42657e-020 1.07489e-018
RightArm  -86.8086 42.3158 15.008
RightForeArm  59.8087 9.18201 1.59015
RightHand  1.32161 25.8076 6.13555
LeftUpLeg  -21.2706 3.01122 -18.4452
LeftLeg  62.2357 -9.33143 -14.8615
LeftFoot  -29.3493 2.29796 8.75919
LeftToes  -0.0763387 2.37847e-007 4.89147e-008
306
root  43.4148 27.5373 -52.1902 -165.784 -0.32901 174.174
RightUpLeg  -67.7539 2.94666 0.0978475
RightLeg  58.7505 -4.90075 -7.04996
RightFoot  -0.992104 -0.0147853 -1.33097
RightToes  -21.3937 -0.0893634 -0.187932
Spine  18.5553 3.43568 11.5627
Spine1  33.9964 7.24098 10.5049
HEad  11.8427 -18.0803 1.73747
LeftShoulder1  0 -2.42657e-020 -4.95415e-022
LeftArm  -3.69537 -19.0671 -99.5857
LeftForeArm  38.0848 -39.5333 -8.36116
LeftHand  -0.425888 -10.4082 4.30636
RightShoulder  0 2.42657e-020 1.07489e-018
RightArm  -88.642 40.759 16.4382
RightForeArm  57.9049 10.7706 1.88179
RightHand  0.0498388 25.2688 0.592493
LeftUpLeg  -21.3421 4.03168 -15.7333
LeftLeg  67.5137 -10.693 -20.7001
LeftFoot  -19.7393 1.43667 8.24375
LeftToes  -8.42618 2.37847e-007 4.89147e-008
307
root  43.2608 28.0123 -53.6574 -165.646 -2.36449 174.769
RightUpLeg  -64.9015 1.54964 0.618752
RightLeg  59.0546 -5.20783 -7.56535
RightFoot  -2.17095 -0.0246832 -0.925416
RightToes  -17.3171 -0.0670132 -0.154909
Spine  17.7638 3.43395 11.6612
Spine1  32.9623 7.41685 10.875
HEad  13.6852 -19.1359 3.57854
LeftShoulder1  0 -2.42657e-020 -4.95415e-022
LeftArm  -5.31776 -16.7048 -99.7593
LeftForeArm  38.6961 -37.6136 -7.79853
LeftHand  -0.318241 -10.507 3.09211
RightShoulder  0 2.42657e-020 1.07489e-018
RightArm  -84.3007 38.0238 18.4436
RightForeArm  52.061 12.9659 2.29614
RightHand  -0.477424 25.1797 -1.76784
LeftUpLeg  -23.758 4.53216 -12.5274
LeftLeg  73.5818 -10.8677 -27.2747
LeftFoot  -6.02683 0.18472 3.50783
LeftToes  -46.5751 2.37847e-007 4.89147e-008
